<svg preserveAspectRatio="none" width="100%" height="100%" overflow="visible" style="display: block;" viewBox="0 0 111.21 86.4" fill="none" xmlns="http://www.w3.org/2000/svg">
<g id="Layer_1" clip-path="url(#clip0_0_13441)">
<path id="Vector" d="M23.31 86.4C18.98 86.4 15.07 85.18 11.57 82.74C8.07 80.3 5.27 76.69 3.16 71.92C1.05 67.15 0 61.27 0 54.27C0 45.28 1.77 36.65 5.33 28.38C8.88 20.11 14.1 13.31 20.98 7.99C27.86 2.66 36.29 0 46.28 0V6.66C39.84 6.66 34.04 8.16 28.88 11.15C23.72 14.14 19.39 18.25 15.89 23.47C12.39 28.69 9.92 34.6 8.48 41.2C7.04 47.8 6.87 54.77 7.98 62.09H5.82C5.6 60.2 6.24 58.09 7.73 55.76C9.23 53.43 11.45 51.41 14.39 49.68C17.33 47.96 20.74 47.1 24.63 47.1C31.84 47.1 37.14 48.99 40.53 52.76C43.91 56.53 45.61 61.2 45.61 66.74C45.61 70.4 44.64 73.73 42.7 76.73C40.76 79.73 38.09 82.09 34.71 83.81C31.32 85.53 27.52 86.39 23.31 86.39V86.4ZM88.23 86.4C83.9 86.4 79.96 85.18 76.41 82.74C72.86 80.3 70.06 76.69 68 71.92C65.94 67.15 64.92 61.27 64.92 54.27C64.92 45.28 66.69 36.65 70.25 28.38C73.8 20.11 79.02 13.31 85.9 7.99C92.78 2.66 101.22 0 111.2 0V6.66C104.76 6.66 98.96 8.16 93.8 11.15C88.64 14.15 84.31 18.25 80.81 23.47C77.31 28.69 74.84 34.6 73.4 41.2C71.96 47.8 71.79 54.77 72.9 62.09H70.74C70.52 60.2 71.16 58.09 72.65 55.76C74.15 53.43 76.37 51.41 79.31 49.68C82.25 47.96 85.66 47.1 89.55 47.1C96.76 47.1 102.06 48.99 105.45 52.76C108.83 56.53 110.53 61.2 110.53 66.74C110.53 70.4 109.56 73.73 107.62 76.73C105.68 79.73 103.01 82.09 99.63 83.81C96.24 85.53 92.44 86.39 88.23 86.39V86.4Z" fill="var(--fill-0, #FFFEFE)"/>
</g>
<defs>
<clipPath id="clip0_0_13441">
<rect width="111.21" height="86.4" fill="white"/>
</clipPath>
</defs>
</svg>
