<svg width="150" height="102" viewBox="0 0 150 102" fill="none" xmlns="http://www.w3.org/2000/svg">
<g clip-path="url(#clip0_28_77)">
<mask id="mask0_28_77" style="mask-type:luminance" maskUnits="userSpaceOnUse" x="0" y="5" width="150" height="90">
<path d="M149.394 5.09998H0V94.3427H149.394V5.09998Z" fill="white"/>
</mask>
<g mask="url(#mask0_28_77)">
<path d="M89.2499 49.7287C89.2499 25.9696 70.6772 6.54836 47.2619 5.18046C20.0722 3.60043 -1.49967 25.1723 0.0803636 52.362C1.44826 75.7773 20.8695 94.35 44.6286 94.35C50.4952 94.35 56.0911 93.2162 61.2262 91.1607C61.4237 91.0802 61.8187 90.9339 62.0163 90.8681C62.777 90.6267 63.194 91.0071 63.8084 91.6508C65.4616 93.3917 69.4044 94.0501 72.4474 93.4868C75.1832 92.9748 74.2542 90.5462 73.6178 89.6904C73.413 89.4197 72.2426 87.986 70.9405 86.7424C70.6406 86.4498 70.6699 85.967 71.0064 85.7183C82.0593 77.5987 89.2426 64.5049 89.2426 49.736" fill="#00A3A1"/>
<path d="M65.8784 76.9988C64.569 76.9988 63.9692 75.8284 63.5449 74.6873C62.0819 71.0737 61.5625 67.504 61.9941 64.0806C62.1038 63.0931 62.2648 62.1055 62.4257 61.1546C62.7841 58.9674 63.1206 56.8973 62.9597 54.6223C62.8134 51.9597 61.8478 48.1486 59.5948 46.1369C59.3095 45.9102 59.0169 45.7858 58.739 45.7858C58.2781 45.7858 57.9563 46.1296 57.9343 46.6417C57.8758 47.6804 58.5927 49.1361 59.2876 50.1529C59.6021 50.5918 59.9898 50.9795 60.3629 51.3525C61.2114 52.2084 62.0892 53.0862 62.2575 54.6662C62.4915 56.8241 61.7308 58.3822 60.0044 59.2966C59.2876 59.677 58.4098 59.8891 57.5832 59.8891C56.2299 59.8891 55.1912 59.3258 54.7377 58.3456C54.2476 57.285 53.8745 56.1877 53.5161 55.127C53.0113 53.6348 52.5285 52.223 51.7678 50.9941C50.0049 47.8706 47.4227 45.2153 44.9356 42.6477C44.3358 42.0259 43.7359 41.4115 43.1434 40.7897C42.2144 39.8461 41.3659 38.3611 41.7024 37.3443C41.8853 36.7884 42.3827 36.4446 43.18 36.3202C43.2605 36.3202 43.3336 36.3129 43.3995 36.3129C44.526 36.3129 45.6013 36.9274 46.64 37.5199C47.3715 37.9369 48.0591 38.3319 48.7467 38.5074C49.0978 38.5952 49.4416 38.6464 49.7708 38.6464C51.029 38.6464 51.9726 37.9954 52.9748 37.3005C54.0135 36.5836 55.0815 35.8448 56.5591 35.8228C56.8444 35.8009 57.1443 35.7863 57.4369 35.7863C60.3702 35.7863 62.9158 37.1103 64.7958 39.6193C66.3831 41.7333 67.4145 44.5715 67.7144 47.6073V47.6731C68.1387 50.7966 68.541 54.3955 68.0582 57.6068C68.029 57.8263 67.9924 58.0603 67.9558 58.3091C67.7583 59.7062 67.4804 61.6154 66.9171 63.4954C65.637 67.7307 65.9149 69.9326 66.1051 71.3882V71.4321C66.149 71.7467 66.2368 72.1709 66.3392 72.6684C66.6464 74.1752 67.0341 76.0406 66.4855 76.7209C66.3465 76.8964 66.149 76.9842 65.9149 76.9915H65.893L65.8784 76.9988Z" fill="white"/>
<path d="M57.4299 35.6107C57.1373 35.6107 56.8373 35.6253 56.5374 35.6473C55.0232 35.6766 53.926 36.43 52.8726 37.1615C51.8924 37.8345 50.9707 38.4782 49.7711 38.4782C49.4565 38.4782 49.1347 38.4343 48.7909 38.3465C48.1325 38.171 47.4522 37.7833 46.728 37.3736C45.6674 36.7665 44.5774 36.1447 43.407 36.1447C43.3339 36.1447 43.2607 36.1447 43.1949 36.1447C43.1876 36.1447 43.173 36.1447 43.1657 36.1447C42.0904 36.313 41.6953 36.8543 41.549 37.2858C41.1394 38.5294 42.3391 40.1972 43.034 40.9068C43.6192 41.5285 44.2263 42.1576 44.8188 42.7648C47.3059 45.325 49.8735 47.973 51.6218 51.0746C52.3752 52.2962 52.8507 53.7007 53.3554 55.1856C53.7138 56.2536 54.0942 57.3508 54.5843 58.4261C55.0671 59.4722 56.1644 60.072 57.5908 60.072C58.4393 60.072 59.3537 59.8452 60.0925 59.4575C61.8627 58.5212 62.6747 56.8607 62.4406 54.6589C62.2651 53.0204 61.3653 52.1133 60.4948 51.2428C60.1071 50.8551 59.7487 50.4894 59.4342 50.0578C58.7612 49.0776 58.0589 47.6658 58.1175 46.671C58.1321 46.2467 58.3808 45.9687 58.7465 45.9687C58.9806 45.9687 59.244 46.0784 59.5 46.2906C61.7018 48.251 62.6527 52.0182 62.799 54.6443C62.96 56.9046 62.6235 58.9601 62.2651 61.14C62.1114 62.0909 61.9505 63.0784 61.8335 64.0733C61.3946 67.526 61.9212 71.1249 63.3989 74.7678C63.6622 75.4846 64.284 77.1817 65.8933 77.1817H65.9152C66.2005 77.1817 66.4492 77.0647 66.6175 76.8452C67.1734 76.1576 66.9101 74.6068 66.5004 72.6537C66.398 72.1636 66.3102 71.7321 66.2737 71.4248V71.3809C66.0835 69.9399 65.8055 67.76 67.0783 63.5612C67.6489 61.6667 67.9268 59.7501 68.1243 58.3457C68.1609 58.0969 68.1902 57.8629 68.2268 57.6507C68.7095 54.4175 68.3072 50.8039 67.8903 47.6658V47.5926C67.583 44.535 66.537 41.6675 64.9277 39.5242C63.0112 36.9713 60.4217 35.618 57.4299 35.618M57.4299 35.9545C63.75 35.9545 66.9978 42.1137 67.5318 47.6219V47.6951C67.978 50.9575 68.3438 54.476 67.8756 57.5776C67.6562 59.0259 67.4002 61.2497 66.7418 63.4442C65.4397 67.76 65.7397 69.9692 65.9298 71.4541C66.1127 72.9025 67.3197 76.8013 65.9079 76.8233H65.886C64.6424 76.8233 64.0865 75.6236 63.7134 74.6215C62.3455 71.242 61.7237 67.643 62.17 64.0952C62.5357 60.9059 63.3696 57.9287 63.1355 54.6077C62.9819 51.711 61.9359 47.9877 59.7121 46.0053C59.3756 45.7273 59.0391 45.6103 58.7392 45.6103C58.1979 45.6103 57.7883 46.0199 57.7663 46.6344C57.7005 47.7755 58.4978 49.297 59.1489 50.248C60.1949 51.7037 61.8554 52.479 62.0895 54.6809C62.2577 56.2609 61.9359 58.075 59.9243 59.1357C59.2366 59.4941 58.3954 59.7062 57.5835 59.7062C56.4423 59.7062 55.367 59.282 54.8916 58.2652C53.7285 55.7415 53.2384 53.035 51.9144 50.8917C49.7199 47.0148 46.333 43.8986 43.2681 40.6581C42.0684 39.4365 40.6932 36.8762 43.2022 36.4812C43.2681 36.4812 43.3339 36.4812 43.3924 36.4812C45.2358 36.4812 46.9914 38.2295 48.6885 38.6757C49.0688 38.7781 49.42 38.822 49.7564 38.822C52.3971 38.822 53.7358 36.0423 56.5447 35.9984C56.8447 35.9692 57.1373 35.9618 57.4225 35.9618" fill="#00A3A1"/>
<path d="M70.4942 92.5943C70.0114 92.5943 69.4774 92.5651 68.8849 92.5066C65.3298 92.1628 64.0131 91.0436 62.7623 87.3202C61.0652 82.3022 58.1758 80.5612 55.3815 78.8861C54.8694 78.5789 54.3647 78.2716 53.8673 77.9571C50.2025 75.5943 47.3496 71.081 47.3643 67.6649C47.3643 67.1382 47.0863 66.5384 46.6767 66.5238C46.2597 66.5238 46.0037 67.0797 45.9232 68.0819C45.7915 69.7204 46.0915 71.2566 46.3841 72.7488C46.4938 73.2901 46.6035 73.8534 46.684 74.402C47.7154 81.2927 46.8668 83.8017 44.8333 86.2669C42.5144 89.0685 37.8548 89.822 35.4701 89.822C33.8462 89.822 32.1418 89.5952 30.4008 89.1417C27.1164 88.2858 24.8634 86.0182 24.0588 82.7484C23.1298 78.9885 24.3002 74.4605 26.7726 72.2148C28.3014 70.825 30.5179 69.8887 32.2954 69.1352C33.7365 68.5281 34.8776 68.0453 35.397 67.482C36.4576 66.3409 36.5235 65.3022 36.6844 62.7931C36.7064 62.4713 36.7283 62.1202 36.7576 61.7398C36.7795 61.4764 36.8746 61.2863 37.0575 61.1619C37.2623 61.0229 37.5695 60.9498 37.9792 60.9498C39.1715 60.9498 41.1392 61.5496 43.0411 62.1202C45.2649 62.7931 47.5545 63.4881 49.2003 63.4881C49.4344 63.4881 49.6465 63.4734 49.844 63.4442C50.8755 63.2979 54.0209 62.8443 53.9989 60.2622C53.9989 60.1524 54.0648 60.0647 54.1672 60.0354C54.1818 60.0354 54.2184 60.0281 54.233 60.0281C54.3062 60.0281 54.372 60.0647 54.4159 60.1305C54.767 60.6718 55.1767 61.3155 55.6229 62.0251C56.1057 62.7931 56.5884 63.532 57.0566 64.2415L57.1736 64.4171C58.8415 66.97 60.2898 69.1718 60.8458 71.0298C61.826 74.2776 62.6818 77.0573 63.1939 78.7178L63.2524 78.9007C63.4938 79.6834 63.6474 80.1808 63.684 80.3125C64.1229 81.834 65.7175 83.9846 67.0123 85.177C67.5243 85.6451 68.2851 86.1937 69.0897 86.7716C70.7795 87.9859 72.8862 89.4928 73.369 90.868C73.508 91.2557 73.4714 91.5922 73.2593 91.8628C72.9959 92.1993 72.301 92.6017 70.5015 92.6017" fill="#FACFCF"/>
<path d="M54.2257 59.8893C54.2257 59.8893 54.1599 59.8893 54.1306 59.9039C53.9624 59.9551 53.86 60.0941 53.8673 60.255C53.8892 62.7275 50.8316 63.1664 49.8221 63.3053C49.6319 63.3346 49.4271 63.3492 49.2003 63.3492C47.5764 63.3492 45.2941 62.6543 43.0923 61.9886C41.1685 61.4034 39.1935 60.8036 37.9792 60.8036C37.5403 60.8036 37.2111 60.8841 36.9843 61.0377C36.7649 61.184 36.6478 61.4181 36.6259 61.718C36.5966 62.0984 36.5747 62.4495 36.5528 62.7713C36.3845 65.317 36.326 66.2679 35.2946 67.3798C34.7972 67.9211 33.6707 68.3966 32.2442 68.9964C30.4521 69.7498 28.2283 70.6935 26.6775 72.0979C24.1758 74.3656 22.9908 78.9521 23.9271 82.7559C24.7464 86.0769 27.0287 88.3811 30.357 89.2442C32.1052 89.6978 33.8243 89.9319 35.4555 89.9319C41.7683 89.9319 44.6139 86.6986 44.9211 86.3329C46.9839 83.8385 47.8398 81.3075 46.801 74.3656C46.7206 73.817 46.6108 73.2757 46.5011 72.7051C46.2085 71.2275 45.9159 69.6986 46.0403 68.0747C46.1134 67.175 46.3402 66.641 46.6474 66.641H46.662C46.9546 66.6556 47.2253 67.1457 47.2253 67.6504C47.2107 71.1031 50.0928 75.6677 53.7868 78.0523C54.2769 78.3669 54.7817 78.6668 55.2645 78.9594L55.301 78.9813C58.0807 80.6492 60.9482 82.3755 62.6306 87.3497C63.8961 91.0949 65.2933 92.28 68.8703 92.6238C69.4628 92.6823 70.0041 92.7115 70.4869 92.7115C72.3376 92.7115 73.0618 92.2873 73.3471 91.9215C73.5153 91.7094 73.6689 91.3436 73.4787 90.8023C72.9813 89.3905 70.86 87.869 69.1483 86.6474C68.3436 86.0695 67.5829 85.5282 67.0855 85.0601C65.8053 83.8824 64.2253 81.761 63.7937 80.2541C63.7571 80.1225 63.6108 79.647 63.3621 78.857L63.3109 78.6814C62.7916 77.0063 61.9357 74.2193 60.9555 70.9641C60.3923 69.0915 58.9439 66.8824 57.2688 64.3221L57.2029 64.2197C56.7201 63.4809 56.2227 62.7201 55.718 61.9228C55.2718 61.2133 54.8548 60.5695 54.511 60.0282C54.4452 59.9258 54.3355 59.8673 54.2184 59.8673M54.2257 60.1453C54.2257 60.1453 54.2769 60.1599 54.2989 60.1892C54.65 60.7305 55.0596 61.3742 55.5058 62.0837C56.0325 62.9177 56.5592 63.715 57.0566 64.4757C58.7244 67.0214 60.1582 69.2158 60.7141 71.0519C61.7016 74.3217 62.5575 77.1087 63.0695 78.7692C63.3402 79.647 63.5084 80.2029 63.5523 80.3419C63.9912 81.8854 65.6078 84.0579 66.9172 85.2649C67.4293 85.7404 68.1973 86.289 69.0093 86.8669C70.6844 88.0665 72.7692 89.5661 73.2447 90.8974C73.369 91.2412 73.3398 91.5412 73.1569 91.7679C72.9374 92.0459 72.301 92.4555 70.5015 92.4555C70.048 92.4555 69.5213 92.4263 68.9069 92.3677C65.425 92.0313 64.1302 90.934 62.894 87.2692C61.1823 82.1999 58.2709 80.4516 55.4546 78.7619C54.9499 78.462 54.4452 78.1547 53.9478 77.8329C50.3195 75.4921 47.4886 71.0226 47.5033 67.6504C47.5033 67.0506 47.1814 66.3996 46.6913 66.3776C46.684 66.3776 46.6767 66.3776 46.6694 66.3776C46.3329 66.3776 45.9159 66.6775 45.8062 68.0528C45.6745 69.7059 45.9744 71.2567 46.2743 72.7563C46.3841 73.3269 46.4938 73.8682 46.5743 74.4022C47.5984 81.2417 46.7645 83.7288 44.7528 86.1646C43.5751 87.5911 40.4004 89.6685 35.4921 89.6685C33.9779 89.6685 32.2954 89.471 30.4594 88.9955C27.2262 88.1543 25.0024 85.9159 24.2124 82.6973C23.298 78.974 24.4465 74.5046 26.8824 72.2955C28.3966 70.9202 30.6057 69.9912 32.3759 69.2378C33.8316 68.6233 34.98 68.1405 35.514 67.5553C36.604 66.3776 36.6698 65.3243 36.838 62.786C36.86 62.4641 36.8819 62.113 36.9112 61.7326C36.9258 61.5132 37.0063 61.3596 37.1599 61.2498C37.3501 61.1182 37.6427 61.0596 38.0084 61.0596C39.1861 61.0596 41.1392 61.6522 43.0411 62.23C45.2649 62.903 47.5618 63.6053 49.2223 63.6053C49.4564 63.6053 49.6758 63.5906 49.8806 63.5614C50.9413 63.4078 54.1672 62.9469 54.1453 60.2477C54.1453 60.1745 54.1965 60.1526 54.2184 60.1453C54.2257 60.1453 54.2404 60.1453 54.2477 60.1453" fill="#00A3A1"/>
<path d="M43.2459 35.3547C43.1581 35.3547 43.063 35.3547 42.9752 35.3547C38.4692 35.1791 34.8629 32.0044 33.9997 27.4472C33.6633 26.0281 33.751 24.9454 34.2704 24.1554C35.0385 22.9923 36.699 22.5534 38.3741 22.2535L38.6594 22.2023C40.2175 21.9317 41.4464 21.7195 42.785 21.0173L42.9021 20.9588C43.7213 20.5491 44.5626 20.1249 45.3014 20.1249C45.4477 20.1249 45.5867 20.1395 45.7183 20.1761C47.3788 20.7247 47.8689 22.7363 48.125 24.6309C48.3152 27.0302 48.2274 29.2613 47.8543 31.2802C47.4374 33.8405 45.711 35.3693 43.2386 35.3693" fill="white"/>
<path d="M45.316 19.9419C44.5333 19.9419 43.6702 20.3735 42.8363 20.7977L42.7192 20.8563C41.4025 21.5512 40.1809 21.7633 38.6448 22.0267L38.4253 22.0632L38.3522 22.0779C36.6332 22.3851 34.9361 22.8386 34.1315 24.0602C33.5828 24.8868 33.4877 26.0133 33.8389 27.4909C34.7093 32.114 38.3815 35.3545 42.9753 35.5301C43.0704 35.5301 43.1581 35.5301 43.2532 35.5301C45.8135 35.5301 47.6056 33.9428 48.0372 31.2874C48.4103 29.2612 48.4981 27.0155 48.3079 24.6088C48.3079 24.6088 48.3079 24.5942 48.3079 24.5869C48.1323 23.3068 47.7739 20.6514 45.7988 19.9931C45.7915 19.9931 45.7842 19.9931 45.7769 19.9931C45.6306 19.9565 45.477 19.9419 45.316 19.9419ZM45.316 20.2857C45.4477 20.2857 45.5721 20.3003 45.6891 20.3296C47.3496 20.8782 47.7519 23.0873 47.9641 24.6381C48.1396 26.8253 48.0957 29.0637 47.6934 31.2289C47.2984 33.6502 45.6818 35.179 43.2532 35.179C43.1654 35.179 43.0777 35.179 42.9899 35.179C38.5351 35.0107 35.0239 31.8726 34.1827 27.4105C33.3707 23.9432 35.1556 23.0069 38.418 22.4217L38.4839 22.407C40.1151 22.1218 41.4464 21.9169 42.8728 21.1635C43.7214 20.7392 44.5772 20.2857 45.316 20.2857Z" fill="#00A3A1"/>
<path d="M49.3976 61.8275C49.0099 61.8275 48.6223 61.7909 48.2419 61.7105C45.272 61.1838 40.4514 59.9768 36.6257 58.2944C34.4312 57.3142 32.1928 56.1145 29.9691 54.7247C28.272 53.664 27.3503 51.2281 27.8258 49.0629C28.3598 46.8099 30.3933 45.2664 32.1928 43.8985L32.3025 43.818C33.334 43.0938 34.1605 42.5379 34.7823 42.5379C34.8994 42.5379 35.0164 42.5599 35.1115 42.6037C35.5431 42.7866 35.8357 43.3938 35.9966 44.4618L36.0332 44.6812C36.4867 47.3512 37.2402 51.8133 39.6175 53.1885C39.8004 53.2909 40.371 53.5543 40.8391 53.5543C40.9415 53.5543 41.0366 53.5396 41.1098 53.5177C41.2561 53.4665 41.3512 53.3787 41.417 53.2251C41.4902 52.9691 41.2268 52.5155 40.8684 51.8938L40.8464 51.8572C40.744 51.6816 40.6343 51.4914 40.5319 51.2866C39.9833 50.3137 39.4932 49.2604 39.0762 48.1631C38.5861 46.8684 38.1033 45.5078 37.6791 44.3081C36.9622 42.2746 36.2234 40.1825 35.3748 38.1782C34.9286 37.059 34.124 36.0422 32.8439 34.9815C32.7049 34.8645 32.5732 34.7548 32.4488 34.6524C31.7978 34.1184 31.3223 33.738 30.9127 32.809C30.1666 31.2216 29.9179 29.4661 30.2324 28.1128C30.408 27.3593 30.8322 26.0134 31.7612 25.1429C32.0099 24.9235 32.2001 24.821 32.3903 24.821C32.4488 24.821 32.5074 24.8284 32.5659 24.8503C33.0121 25.0259 32.9682 25.8817 32.9316 26.445V26.6205C32.7926 29.9781 33.5827 31.0534 35.8723 33.2698C36.7281 34.2574 37.5766 35.4936 38.4032 36.6859C38.8787 37.3809 39.3688 38.0977 39.8223 38.6902C41 40.3288 42.485 41.9088 43.926 43.4377C44.7819 44.352 45.667 45.2883 46.457 46.21C46.6618 46.4661 47.1227 47.0586 47.1227 47.0586C48.7247 49.0848 50.5388 51.3671 51.5629 53.7737C52.0091 54.7978 52.6162 56.334 52.9893 57.5629C53.4575 59.0039 53.3258 59.9988 52.5723 60.679C51.8189 61.4032 50.6631 61.8202 49.3976 61.8202" fill="#FACFCF"/>
<path d="M32.3832 24.6821C32.1638 24.6821 31.9443 24.7918 31.6737 25.0332C30.7154 25.933 30.2838 27.3082 30.1083 28.0397V28.0689C29.7791 29.4515 30.0351 31.2436 30.7886 32.8529C31.2055 33.8039 31.7176 34.2135 32.3613 34.7402C32.4856 34.8426 32.6173 34.9523 32.7563 35.0694C34.0218 36.1154 34.8118 37.1176 35.2507 38.2075C36.0992 40.2191 36.838 42.3112 37.5549 44.3374C38.0011 45.6103 38.4693 46.9123 38.9521 48.1924C39.3763 49.297 39.8664 50.3577 40.4151 51.3379C40.5248 51.5354 40.6272 51.7256 40.7296 51.9011L40.7516 51.9377C41.0734 52.501 41.3294 52.9472 41.2855 53.1739C41.2343 53.2837 41.1685 53.3422 41.0661 53.3788C41.0003 53.4007 40.9271 53.408 40.832 53.408C40.3931 53.408 39.8518 53.1593 39.6763 53.0569C37.3574 51.7183 36.604 47.2927 36.1578 44.6447L36.1212 44.4179C35.9529 43.306 35.6384 42.6623 35.1556 42.4648C35.0386 42.4136 34.9142 42.3917 34.7752 42.3917C34.1169 42.3917 33.2683 42.9549 32.2223 43.6937L32.1053 43.7815C30.2911 45.1567 28.2356 46.7148 27.687 49.0117C27.1969 51.2355 28.1479 53.7299 29.8888 54.8198C32.1126 56.2097 34.3583 57.4166 36.5601 58.3968C40.4004 60.0866 45.2356 61.3009 48.2128 61.8276C48.5932 61.908 48.9882 61.9446 49.3832 61.9446C50.678 61.9446 51.863 61.513 52.6457 60.7669C53.4284 60.05 53.5747 59.0113 53.0919 57.5117C52.7189 56.2828 52.1117 54.7393 51.6655 53.7079C50.6341 51.2867 48.82 48.9898 47.2107 46.9635L47.1668 46.9123C46.9547 46.6417 46.7425 46.3783 46.545 46.1223C45.7477 45.1933 44.8626 44.2497 44.0067 43.3426C42.5657 41.8138 41.088 40.2337 39.9176 38.6025C39.4714 38.0027 38.996 37.3224 38.4985 36.5982C37.672 35.3985 36.8234 34.1623 35.9676 33.1748C35.9676 33.1748 35.9602 33.1602 35.9529 33.1602C33.6414 30.9291 32.9099 29.9269 33.0416 26.6059V26.4377C33.0855 25.8306 33.1367 24.9235 32.6027 24.7114C32.5222 24.6821 32.4491 24.6675 32.3759 24.6675M32.3832 24.9454C32.4271 24.9454 32.471 24.9528 32.5222 24.9674C32.8806 25.1064 32.8294 25.9403 32.8002 26.4377V26.6133C32.6539 30.022 33.4585 31.1193 35.7847 33.365C36.6259 34.3379 37.4744 35.5668 38.2937 36.7591C38.7985 37.4906 39.2739 38.1782 39.7201 38.7708C40.8979 40.4166 42.3901 41.9967 43.8312 43.5328C44.687 44.4399 45.5721 45.3835 46.3548 46.2979C46.5743 46.5758 46.7937 46.8538 47.0205 47.1391C48.6152 49.1507 50.4219 51.433 51.4387 53.825C51.8849 54.8491 52.4848 56.3779 52.8578 57.5995C53.3041 58.9893 53.187 59.9403 52.4775 60.584C51.7386 61.2936 50.5975 61.6886 49.3905 61.6886C49.0175 61.6886 48.6371 61.652 48.264 61.5715C45.3015 61.0522 40.4882 59.8452 36.6698 58.1627C34.4826 57.1825 32.2516 55.9902 30.0351 54.6004C28.3819 53.5689 27.4822 51.1916 27.9503 49.0775C28.4697 46.8757 30.4886 45.3396 32.2662 43.9936L32.3759 43.9132C33.3707 43.2109 34.2047 42.6623 34.7825 42.6623C34.8849 42.6623 34.98 42.6769 35.0605 42.7135C35.4409 42.8744 35.7115 43.467 35.8651 44.4691L35.9017 44.6959C36.3553 47.3878 37.116 51.8865 39.5519 53.291C39.7713 53.4153 40.3492 53.6714 40.832 53.6714C40.9417 53.6714 41.0515 53.6567 41.1466 53.6275C41.3221 53.5689 41.4465 53.4519 41.5269 53.2617C41.6147 52.9325 41.3587 52.4863 40.971 51.8133C40.8613 51.6232 40.7516 51.4257 40.6345 51.2135C40.0932 50.2406 39.6031 49.1946 39.1861 48.1047C38.7034 46.8245 38.2352 45.5152 37.789 44.257C37.0721 42.2307 36.3333 40.1386 35.4775 38.1197C35.0239 36.9786 34.2047 35.9472 32.9099 34.8792C32.7709 34.7621 32.6392 34.6524 32.5149 34.55C31.8785 34.0306 31.4103 33.6503 31.0153 32.7578C30.2838 31.1924 30.0278 29.4734 30.3423 28.1421V28.1055C30.5179 27.396 30.9275 26.0793 31.8346 25.2307C32.054 25.0332 32.2223 24.9454 32.3759 24.9454" fill="#00A3A1"/>
<path d="M26.4215 70.0203C26.3703 70.0203 26.3264 69.9764 26.3118 69.9325C26.2679 69.7936 26.3484 69.5156 26.5678 68.8938C27.1896 67.1163 28.4843 63.4149 23.9198 59.8013C20.6719 57.2264 17.2046 50.1675 19.07 45.6834C19.6113 44.3009 20.4159 42.9915 21.1986 41.726C22.3836 39.7949 23.6126 37.7979 23.9417 35.4863C24.2782 33.5259 24.3075 31.4412 24.3294 29.4222C24.366 26.6425 24.4026 23.7751 25.2219 21.1344C26.9336 15.5969 31.4323 12.0199 36.6917 12.0199C37.2477 12.0199 37.8036 12.0638 38.3522 12.1443C40.2102 12.4515 42.9534 14.2729 43.2021 14.4924C43.6775 14.9605 44.4602 15.8968 44.4676 17.038C44.4676 17.7987 44.1237 18.5302 43.4361 19.2178C42.1341 20.5199 38.9813 21.0393 35.7774 21.4123C31.2787 21.9317 28.7184 24.8796 28.7623 29.51C28.7989 33.5698 30.6861 35.2084 32.2003 36.5251C33.3415 37.5126 34.3217 38.3684 34.3875 39.9485C34.2997 41.3749 32.9684 42.0186 31.5639 42.6989C30.7886 43.072 29.9839 43.4597 29.406 43.9863C27.409 45.5664 26.363 48.0608 26.6044 50.6649C26.8458 53.2617 28.338 55.5294 30.5984 56.729C32.8221 57.9067 33.3195 58.4627 34.5046 60.3207C34.7972 60.7888 35.4774 62.5591 34.7167 64.5341C33.795 66.948 31.1616 68.7695 26.9043 69.9545C26.6483 70.0276 26.5166 70.0276 26.4727 70.0276C26.4727 70.0276 26.4508 70.0276 26.4435 70.0276C26.4435 70.0276 26.4361 70.0276 26.4288 70.0276" fill="#FACFCF"/>
<path d="M36.6918 11.8882C31.3738 11.8882 26.8239 15.5018 25.0976 21.0977C24.2783 23.7531 24.2344 26.6279 24.1978 29.4075C24.1686 31.4338 24.1393 33.5112 23.8101 35.457C23.4883 37.7466 22.2667 39.7363 21.0817 41.6528C20.299 42.9256 19.4943 44.235 18.9457 45.6322C17.0584 50.1674 20.555 57.3069 23.8394 59.9037C28.3381 63.4661 27.058 67.1016 26.4509 68.8572C26.2095 69.5448 26.1363 69.8082 26.1948 69.9764C26.2241 70.0715 26.3119 70.1446 26.407 70.152C26.4143 70.152 26.4289 70.152 26.4362 70.152C26.4509 70.152 26.4655 70.152 26.4801 70.152C26.5459 70.152 26.6849 70.1373 26.9336 70.0715C31.2348 68.8718 33.8975 67.0211 34.8338 64.5706C35.6092 62.5444 34.9143 60.7229 34.607 60.2402C33.4293 58.3895 32.888 57.7896 30.6496 56.6046C28.4259 55.4269 26.9556 53.1958 26.7215 50.6429C26.4874 48.09 27.5115 45.6395 29.4719 44.0887C29.4719 44.0887 29.4793 44.0814 29.4866 44.0741C30.0425 43.5693 30.8398 43.1816 31.6079 42.8159C32.9904 42.1502 34.4242 41.4626 34.512 39.9704C34.512 39.9631 34.512 39.9557 34.512 39.9411C34.4461 38.3026 33.3928 37.3882 32.2809 36.4226C30.7813 35.1205 28.9233 33.5039 28.8867 29.5026C28.8502 24.9454 31.3665 22.0487 35.7848 21.5366C39.018 21.1636 42.1927 20.6369 43.524 19.3056C44.2336 18.596 44.592 17.8279 44.592 17.0306C44.592 15.8456 43.78 14.8727 43.2972 14.3972C43.0412 14.1631 40.2542 12.3198 38.3816 12.0125C37.8183 11.9321 37.2551 11.8882 36.6918 11.8882ZM36.6918 12.1442C37.2331 12.1442 37.7817 12.1808 38.3377 12.2612C40.1372 12.5612 42.8803 14.368 43.1144 14.5801C43.5679 15.0263 44.3286 15.9407 44.336 17.0306C44.336 17.7548 44.0068 18.457 43.3411 19.1154C42.0683 20.3882 38.9448 20.9075 35.7555 21.2733C31.1836 21.8 28.5868 24.7991 28.6234 29.4953C28.66 33.6137 30.5692 35.2742 32.1053 36.6055C33.2245 37.5784 34.1901 38.4123 34.2486 39.9411C34.1681 41.2798 32.8734 41.9015 31.4982 42.5672C30.7155 42.9476 29.8962 43.3353 29.311 43.8693C27.2848 45.4712 26.2241 48.0095 26.4655 50.6502C26.7069 53.2909 28.2284 55.6025 30.5326 56.8241C32.7271 57.9872 33.2245 58.5358 34.3949 60.3718C34.6802 60.8254 35.3312 62.5444 34.5924 64.4682C33.6854 66.8383 31.0812 68.6378 26.8678 69.8081C26.5459 69.8959 26.4435 69.874 26.4435 69.8813C26.407 69.7643 26.5679 69.3034 26.6996 68.9304C27.336 67.1236 28.6453 63.3637 24.0077 59.6915C20.7891 57.1459 17.351 50.1601 19.1944 45.7199C19.7357 44.3447 20.533 43.0427 21.3084 41.7772C22.5008 39.8314 23.737 37.8198 24.0735 35.4863C24.41 33.5186 24.4392 31.4192 24.4685 29.3929C24.5051 26.6279 24.5416 23.775 25.3536 21.1563C27.0507 15.6554 31.5786 12.1296 36.6991 12.1296" fill="#00A3A1"/>
<path d="M104.845 66.9554C104.845 67.1675 104.765 67.2918 104.575 67.3357L104.194 67.4235C103.953 67.482 103.829 67.3796 103.814 67.109L103.47 58.5358C103.36 56.0707 102.022 54.8344 99.447 54.8344C98.6131 54.8344 97.845 54.9295 97.1501 55.127L96.9526 63.8392C96.9306 64.9145 96.6307 65.7776 96.0455 66.436C95.4018 67.1602 94.4801 67.5479 93.2731 67.6137C93.1122 67.6137 93.0317 67.5698 93.0317 67.4601V67.1602C93.0317 67.0578 93.0829 66.9992 93.1854 66.9846C94.9556 66.7725 95.8553 65.7411 95.8992 63.8904L96.104 55.3392C95.987 55.3684 95.4018 55.544 94.3484 55.8732C94.1948 55.9244 94.0924 55.8732 94.0485 55.7342L93.9388 55.4562C93.8876 55.3026 93.9242 55.2075 94.0339 55.1783C95.9577 54.4833 97.8523 54.1395 99.703 54.1395C101.159 54.1395 102.3 54.498 103.112 55.2148C103.96 55.9536 104.421 57.0363 104.472 58.4627L104.831 66.97L104.845 66.9554Z" fill="#00A3A1"/>
<path d="M112.438 67.0871C112.438 67.2846 112.328 67.3797 112.116 67.3797H107.259C107.127 67.3797 107.062 67.3212 107.062 67.2042V66.8677C107.062 66.7287 107.157 66.6628 107.347 66.6628H111.429V58.4042C111.429 57.2412 111.114 56.3487 110.485 55.7196C109.936 55.1783 109.234 54.9077 108.386 54.9077C108.239 54.9077 108.173 54.8418 108.188 54.7029L108.217 54.3664C108.232 54.2567 108.327 54.2054 108.495 54.2054C109.527 54.2054 110.404 54.5419 111.129 55.2149C111.999 56.0196 112.438 57.1534 112.438 58.6237V67.0871Z" fill="#00A3A1"/>
<path d="M117.01 67.0651C117.01 67.2187 116.974 67.3138 116.9 67.3504C116.857 67.3724 116.783 67.3797 116.674 67.3797H116.286C116.074 67.3797 115.971 67.2773 115.971 67.0651V54.7028C115.971 54.4761 116.067 54.3663 116.257 54.3663H116.754C116.93 54.3663 117.017 54.4687 117.017 54.6662V67.0578L117.01 67.0651Z" fill="#00A3A1"/>
<path d="M130.535 67.226C130.535 67.3284 130.433 67.3796 130.236 67.3796H120.441C120.287 67.3796 120.207 67.3797 120.192 67.365C120.148 67.3431 120.126 67.2772 120.126 67.1602V66.8749C120.126 66.7359 120.229 66.6701 120.441 66.6701H127.778V58.4188C127.778 56.0634 126.622 54.893 124.303 54.893C123.125 54.893 121.955 55.2075 120.799 55.8439C120.682 55.9098 120.58 55.8805 120.485 55.7562L120.287 55.4855C120.177 55.3246 120.199 55.2075 120.353 55.1271C121.626 54.476 123.023 54.1542 124.552 54.1542C125.883 54.1542 126.929 54.5272 127.683 55.2661C128.436 56.0049 128.816 57.0655 128.816 58.4408V66.6701H130.214C130.433 66.6701 130.535 66.7286 130.535 66.853V67.2187V67.226Z" fill="#00A3A1"/>
<path d="M143.015 66.9554C143.015 67.1675 142.935 67.2918 142.744 67.3357L142.364 67.4235C142.123 67.482 141.998 67.3796 141.984 67.109L141.64 58.5358C141.53 56.0707 140.192 54.8344 137.617 54.8344C136.783 54.8344 136.015 54.9295 135.32 55.127L135.122 63.8392C135.1 64.9145 134.8 65.7776 134.215 66.436C133.571 67.1602 132.65 67.5479 131.443 67.6137C131.282 67.6137 131.201 67.5698 131.201 67.4601V67.1602C131.201 67.0578 131.253 66.9992 131.355 66.9846C133.125 66.7725 134.032 65.7411 134.069 63.8904L134.274 55.3392C134.157 55.3684 133.571 55.544 132.518 55.8732C132.364 55.9244 132.262 55.8732 132.218 55.7342L132.108 55.4562C132.057 55.3026 132.087 55.2075 132.204 55.1783C134.127 54.4833 136.022 54.1395 137.873 54.1395C139.328 54.1395 140.469 54.498 141.281 55.2148C142.13 55.9536 142.584 57.0363 142.642 58.4627L143 66.97L143.015 66.9554Z" fill="#00A3A1"/>
<path d="M98.9347 87.8908C98.9347 88.0444 98.9054 88.1322 98.8469 88.1615C98.7884 88.1907 98.7079 88.2054 98.6055 88.2054H98.2032C97.9911 88.2054 97.8887 88.103 97.8887 87.8908V79.0251C97.8887 76.8233 96.7402 75.726 94.4433 75.726C93.2875 75.726 92.2195 76.0186 91.2247 76.6038C91.1077 76.677 91.0053 76.6477 90.9248 76.516L90.7419 76.2381C90.6322 76.0845 90.6541 75.9747 90.8078 75.8943C91.8757 75.3018 93.1851 75.0092 94.7359 75.0092C96.0233 75.0092 97.0255 75.3383 97.757 75.9967C98.5397 76.6989 98.9274 77.7157 98.9274 79.0617V87.9055L98.9347 87.8908Z" fill="#00A3A1"/>
<path d="M112.453 88.0517C112.453 88.1541 112.351 88.2053 112.153 88.2053H102.358C102.205 88.2053 102.124 88.2053 102.11 88.1907C102.066 88.1688 102.044 88.1029 102.044 87.9859V87.7079C102.044 87.5689 102.146 87.5031 102.358 87.5031H109.695V79.2518C109.695 76.8964 108.539 75.726 106.221 75.726C105.043 75.726 103.872 76.0405 102.717 76.6769C102.6 76.7428 102.497 76.7135 102.402 76.5892L102.205 76.3185C102.095 76.1576 102.117 76.0405 102.27 75.9601C103.543 75.309 104.94 74.9872 106.469 74.9872C107.801 74.9872 108.847 75.3602 109.6 76.0991C110.354 76.8379 110.734 77.8985 110.734 79.2738V87.5031H112.131C112.35 87.5031 112.453 87.5616 112.453 87.686V88.0517Z" fill="#00A3A1"/>
<path d="M123.901 75.5212L123.433 82.0827C123.265 84.365 122.731 86.0182 121.831 87.0496C121.151 87.825 120.068 88.3883 118.583 88.7467L114.494 89.7415C114.348 89.7708 114.26 89.7269 114.231 89.6099L114.135 89.288C114.099 89.1417 114.15 89.0539 114.289 89.0247L117.698 88.242L114.311 75.5871C114.252 75.3896 114.304 75.2798 114.45 75.2433L115.043 75.0896C115.233 75.0384 115.342 75.0896 115.379 75.2433L118.576 88.0371C119.68 87.7811 120.521 87.291 121.107 86.5522C121.845 85.6159 122.27 84.1968 122.394 82.3095L122.826 75.3895C122.84 75.1774 122.943 75.0896 123.126 75.1189L123.689 75.192C123.842 75.214 123.908 75.3164 123.894 75.5066" fill="#00A3A1"/>
<path d="M137.221 82.8801C137.251 83.1947 137.265 83.5092 137.265 83.8091C137.265 86.8961 135.941 88.4395 133.293 88.4395C132.525 88.4395 131.859 88.3371 131.289 88.1396C131.077 88.0665 131.018 87.9494 131.113 87.7812L131.223 87.5617C131.304 87.4154 131.435 87.3788 131.625 87.452C132.137 87.6422 132.642 87.7373 133.132 87.7373C134.083 87.7373 134.837 87.43 135.385 86.8083C135.956 86.1572 136.241 85.2502 136.241 84.0944C136.241 83.8677 136.234 83.6409 136.212 83.4141L135.824 79.0544C135.612 76.7502 134.742 75.6017 133.205 75.6017C131.669 75.6017 130.396 76.3186 129.285 77.7597L127.865 87.9421C127.822 88.2274 127.661 88.3517 127.375 88.3005L127.171 88.2713C126.907 88.2274 126.797 88.0591 126.834 87.7592L128.07 78.7545C128.1 78.5131 128.114 78.301 128.114 78.1035C128.114 77.2549 127.683 76.3844 126.812 75.492C126.644 75.3238 126.607 75.1921 126.695 75.0824L126.871 74.8629C126.958 74.7459 127.083 74.7459 127.236 74.8629C128.173 75.5432 128.794 76.2967 129.087 77.1233C129.533 76.5088 130.118 75.9967 130.843 75.5871C131.669 75.1189 132.525 74.8849 133.396 74.8849C135.488 74.8849 136.651 76.2235 136.878 78.9008L137.221 82.8874V82.8801Z" fill="#00A3A1"/>
<path d="M141.654 87.8908C141.654 88.0444 141.618 88.1395 141.544 88.1761C141.501 88.198 141.427 88.2054 141.325 88.2054H140.923C140.711 88.2054 140.608 88.103 140.608 87.8908V80.3344C140.608 80.1077 140.703 79.998 140.901 79.998H141.391C141.566 79.998 141.647 80.1004 141.647 80.3125V87.8908H141.654ZM149.393 87.8908C149.393 88.0444 149.357 88.1395 149.284 88.1761C149.24 88.198 149.167 88.2054 149.057 88.2054H148.655C148.45 88.2054 148.355 88.103 148.355 87.8908V79.2518C148.355 76.8964 147.17 75.726 144.792 75.726C144.141 75.726 143.41 75.8504 142.598 76.0918C141.844 76.3112 141.223 76.5672 140.718 76.8745C140.601 76.9403 140.498 76.9037 140.403 76.7794L140.206 76.516C140.096 76.3624 140.118 76.2454 140.272 76.1576C141.691 75.3822 143.249 75.0018 144.939 75.0018C147.908 75.0018 149.401 76.3844 149.401 79.1567V87.8908H149.393Z" fill="#00A3A1"/>
<path d="M147.089 91.3143H143.132C143.029 91.3143 142.949 91.2338 142.949 91.1314V90.8827C142.949 90.7803 143.029 90.6998 143.132 90.6998H147.089C147.192 90.6998 147.272 90.7803 147.272 90.8827V91.1314C147.272 91.2338 147.192 91.3143 147.089 91.3143Z" fill="#00A3A1"/>
<path d="M133.308 91.3143H132.891C132.723 91.3143 132.584 91.1753 132.584 91.007V90.5901C132.584 90.4218 132.723 90.2828 132.891 90.2828H133.308C133.476 90.2828 133.615 90.4218 133.615 90.5901V91.007C133.615 91.1753 133.476 91.3143 133.308 91.3143Z" fill="#00A3A1"/>
<path d="M131.72 91.3143H131.303C131.135 91.3143 130.996 91.1753 130.996 91.007V90.5901C130.996 90.4218 131.135 90.2828 131.303 90.2828H131.72C131.889 90.2828 132.028 90.4218 132.028 90.5901V91.007C132.028 91.1753 131.889 91.3143 131.72 91.3143Z" fill="#00A3A1"/>
<path d="M120.485 91.3143H120.068C119.899 91.3143 119.76 91.1753 119.76 91.007V90.5901C119.76 90.4218 119.899 90.2828 120.068 90.2828H120.485C120.653 90.2828 120.792 90.4218 120.792 90.5901V91.007C120.792 91.1753 120.653 91.3143 120.485 91.3143Z" fill="#00A3A1"/>
<path d="M118.905 91.3143H118.488C118.319 91.3143 118.18 91.1753 118.18 91.007V90.5901C118.18 90.4218 118.319 90.2828 118.488 90.2828H118.905C119.073 90.2828 119.212 90.4218 119.212 90.5901V91.007C119.212 91.1753 119.073 91.3143 118.905 91.3143Z" fill="#00A3A1"/>
<path d="M107.881 91.3143H107.464C107.296 91.3143 107.157 91.1753 107.157 91.007V90.5901C107.157 90.4218 107.296 90.2828 107.464 90.2828H107.881C108.049 90.2828 108.188 90.4218 108.188 90.5901V91.007C108.188 91.1753 108.049 91.3143 107.881 91.3143Z" fill="#00A3A1"/>
<path d="M106.301 91.3143H105.884C105.716 91.3143 105.577 91.1753 105.577 91.007V90.5901C105.577 90.4218 105.716 90.2828 105.884 90.2828H106.301C106.469 90.2828 106.608 90.4218 106.608 90.5901V91.007C106.608 91.1753 106.469 91.3143 106.301 91.3143Z" fill="#00A3A1"/>
<path d="M107.069 92.609H106.652C106.484 92.609 106.345 92.4701 106.345 92.3018V91.8849C106.345 91.7166 106.484 91.5776 106.652 91.5776H107.069C107.237 91.5776 107.376 91.7166 107.376 91.8849V92.3018C107.376 92.4701 107.237 92.609 107.069 92.609Z" fill="#00A3A1"/>
</g>
</g>
<defs>
<clipPath id="clip0_28_77">
<rect width="149.394" height="89.25" fill="white" transform="translate(0 5.09998)"/>
</clipPath>
</defs>
</svg>
