<svg width="345" height="45" viewBox="0 0 345 45" fill="none" xmlns="http://www.w3.org/2000/svg">
<g clip-path="url(#clip0_28_78)">
<path d="M234.853 32.3667C234.873 32.892 234.612 33.2159 234.072 33.321L232.98 33.5398C232.29 33.6887 231.929 33.4173 231.889 32.7432L230.888 11.1099C230.577 4.88518 226.703 1.76845 219.263 1.76845C216.85 1.76845 214.638 2.01358 212.645 2.50386L212.084 24.4961C212.024 27.2101 211.143 29.3988 209.461 31.0535C207.609 32.8745 204.945 33.8638 201.461 34.0301C201.001 34.0476 200.77 33.9251 200.77 33.6449V32.8832C200.77 32.6293 200.92 32.4805 201.211 32.4455C206.317 31.9202 208.93 29.3112 209.051 24.6362L209.641 3.05541C209.311 3.12545 207.619 3.57195 204.585 4.39491C204.144 4.52623 203.854 4.39491 203.714 4.03596L203.404 3.32681C203.253 2.9416 203.353 2.70522 203.684 2.61767C209.241 0.866697 214.698 -0.00878906 220.054 -0.00878906C224.26 -0.00878906 227.544 0.892962 229.897 2.69646C232.35 4.55249 233.661 7.28401 233.831 10.891L234.863 32.3667H234.853Z" fill="#00A3A1"/>
<path d="M256.75 32.6994C256.75 33.1897 256.44 33.4348 255.809 33.4348H241.781C241.411 33.4348 241.221 33.286 241.221 32.9971V32.1478C241.221 31.8064 241.491 31.6313 242.032 31.6313H253.806V10.786C253.806 7.8531 252.905 5.59434 251.093 4.00971C249.511 2.64395 247.489 1.96108 245.035 1.96108C244.615 1.96108 244.435 1.78598 244.475 1.44454L244.565 0.595316C244.605 0.323916 244.875 0.183838 245.376 0.183838C248.35 0.183838 250.883 1.03306 252.965 2.72275C255.488 4.74512 256.74 7.61672 256.74 11.3288V32.6906L256.75 32.6994Z" fill="#00A3A1"/>
<path d="M269.956 32.6469C269.956 33.0321 269.856 33.2685 269.646 33.356C269.526 33.4086 269.306 33.4348 268.985 33.4348H267.864C267.263 33.4348 266.963 33.1722 266.963 32.6469V1.44456C266.963 0.884247 267.233 0.595337 267.774 0.595337H269.206C269.706 0.595337 269.956 0.849228 269.956 1.35701V32.6294V32.6469Z" fill="#00A3A1"/>
<path d="M308.975 33.0496C308.975 33.3035 308.685 33.4348 308.104 33.4348H279.829C279.388 33.4348 279.148 33.426 279.108 33.4085C278.988 33.356 278.918 33.1809 278.918 32.892V32.1829C278.918 31.8414 279.218 31.6663 279.829 31.6663H301.005V10.8473C301.005 4.91145 297.661 1.94356 290.983 1.94356C287.588 1.94356 284.214 2.749 280.86 4.35114C280.53 4.51749 280.219 4.44745 279.949 4.13227L279.388 3.44939C279.078 3.04667 279.138 2.749 279.578 2.54764C283.243 0.910482 287.288 0.0875244 291.704 0.0875244C295.558 0.0875244 298.572 1.02429 300.745 2.88908C302.918 4.75387 304.009 7.4241 304.009 10.9085V31.6663H308.034C308.655 31.6663 308.975 31.8239 308.975 32.1303V33.0583V33.0496Z" fill="#00A3A1"/>
<path d="M345 32.3667C345.02 32.892 344.76 33.2159 344.219 33.321L343.128 33.5398C342.437 33.6887 342.076 33.4173 342.036 32.7432L341.035 11.1099C340.725 4.88518 336.85 1.76845 329.411 1.76845C326.998 1.76845 324.785 2.01358 322.792 2.50386L322.232 24.4961C322.171 27.2101 321.29 29.3988 319.608 31.0535C317.756 32.8745 315.093 33.8638 311.608 34.0301C311.148 34.0476 310.917 33.9251 310.917 33.6449V32.8832C310.917 32.6293 311.068 32.4805 311.358 32.4455C316.464 31.9202 319.078 29.3112 319.198 24.6362L319.789 3.05541C319.458 3.12545 317.766 3.57195 314.732 4.39491C314.292 4.52623 314.001 4.39491 313.861 4.03596L313.551 3.32681C313.401 2.9416 313.501 2.70522 313.831 2.61767C319.388 0.866697 324.845 -0.00878906 330.202 -0.00878906C334.407 -0.00878906 337.691 0.892962 340.044 2.69646C342.497 4.55249 343.808 7.28401 343.979 10.891L345.01 32.3667H345Z" fill="#00A3A1"/>
<path d="M23.8096 33.111C23.8096 33.4962 23.7295 33.7238 23.5593 33.7938C23.3891 33.8639 23.1688 33.8989 22.8684 33.8989H21.717C21.1162 33.8989 20.8159 33.6362 20.8159 33.1022V10.7335C20.8159 5.18294 17.5017 2.39889 10.8835 2.39889C7.54933 2.39889 4.45547 3.1343 1.60192 4.61387C1.27151 4.79773 0.981143 4.71893 0.730831 4.395L0.20017 3.68586C-0.110217 3.30064 -0.0501421 3.01173 0.390407 2.81037C3.46424 1.32204 7.24896 0.577881 11.7245 0.577881C15.4292 0.577881 18.3328 1.40959 20.4354 3.06426C22.6882 4.83274 23.8096 7.40667 23.8096 10.7948V33.111Z" fill="#00A3A1"/>
<path d="M62.8281 33.5137C62.8281 33.7676 62.5377 33.8989 61.957 33.8989H33.6818C33.2412 33.8989 33.0009 33.8901 32.9609 33.8726C32.8407 33.8201 32.7706 33.645 32.7706 33.3561V32.6469C32.7706 32.2967 33.071 32.1304 33.6818 32.1304H54.8582V11.3113C54.8582 5.37553 51.514 2.40763 44.8357 2.40763C41.4414 2.40763 38.0672 3.20433 34.713 4.80647C34.3826 4.97281 34.0723 4.89401 33.8119 4.58759L33.2512 3.90471C32.9408 3.50199 33.0009 3.20433 33.4415 3.00296C37.106 1.3658 41.1511 0.542847 45.5666 0.542847C49.4214 0.542847 52.4351 1.47962 54.6078 3.3444C56.7806 5.20919 57.8719 7.88818 57.8719 11.3639V32.1216H61.8969C62.5177 32.1216 62.8381 32.2792 62.8381 32.5857V33.5137H62.8281Z" fill="#00A3A1"/>
<path d="M95.8794 1.88249L94.5378 18.4379C94.0572 24.1899 92.5153 28.3747 89.912 30.9749C87.9496 32.9272 84.8257 34.3543 80.5403 35.2648L68.7256 37.7774C68.3051 37.8475 68.0548 37.7424 67.9747 37.4535L67.6943 36.6305C67.5942 36.2628 67.7344 36.044 68.1349 35.9739L77.9771 34.0041L68.205 2.0751C68.0347 1.58483 68.1749 1.29592 68.6054 1.19961L70.3276 0.814398C70.8683 0.683075 71.1887 0.814398 71.2988 1.19961L80.5103 33.4875C83.6943 32.8484 86.1373 31.6053 87.8194 29.7492C89.942 27.3854 91.1836 23.8134 91.534 19.042L92.7856 1.58483C92.8256 1.05953 93.116 0.831908 93.6567 0.901947L95.2787 1.09455C95.7192 1.14708 95.9095 1.40973 95.8694 1.88249" fill="#00A3A1"/>
<path d="M134.307 20.4602C134.387 21.2656 134.428 22.0448 134.428 22.8065C134.428 30.5983 130.603 34.4942 122.963 34.4942C120.75 34.4942 118.828 34.2403 117.186 33.7325C116.585 33.5487 116.415 33.251 116.685 32.8308L116.996 32.288C117.226 31.9203 117.607 31.8327 118.147 32.0166C119.629 32.4893 121.071 32.7257 122.493 32.7257C125.246 32.7257 127.409 31.9378 128.991 30.3794C130.633 28.7423 131.454 26.4572 131.454 23.5244C131.454 22.9641 131.424 22.3862 131.364 21.7997L130.242 10.7948C129.642 4.99031 127.118 2.0837 122.683 2.0837C118.247 2.0837 114.583 3.89596 111.379 7.52047L107.284 33.2248C107.164 33.9514 106.693 34.2578 105.882 34.1265L105.291 34.0477C104.54 33.9426 104.22 33.5137 104.32 32.7607L107.884 10.0331C107.965 9.42903 108.005 8.88623 108.005 8.39596C108.005 6.25102 106.753 4.05354 104.26 1.8123C103.779 1.39207 103.669 1.05063 103.92 0.770471L104.42 0.227669C104.67 -0.0612413 105.021 -0.0612413 105.481 0.227669C108.185 1.93487 109.967 3.84343 110.818 5.93584C112.11 4.38623 113.792 3.09926 115.884 2.05744C118.277 0.875529 120.74 0.280198 123.254 0.280198C129.291 0.280198 132.645 3.65958 133.316 10.4183L134.317 20.4689L134.307 20.4602Z" fill="#00A3A1"/>
<path d="M147.113 33.111C147.113 33.4962 147.013 33.7325 146.803 33.8201C146.683 33.8726 146.473 33.8989 146.182 33.8989H145.031C144.43 33.8989 144.12 33.6362 144.12 33.1022V14.0341C144.12 13.4738 144.4 13.1849 144.961 13.1849H146.362C146.863 13.1849 147.113 13.4475 147.113 13.9728V33.0934V33.111ZM169.451 33.111C169.451 33.4962 169.351 33.7325 169.141 33.8201C169.021 33.8726 168.8 33.8989 168.48 33.8989H167.329C166.748 33.8989 166.458 33.6362 166.458 33.1022V11.3113C166.458 5.37555 163.033 2.40765 156.175 2.40765C154.302 2.40765 152.19 2.71407 149.837 3.33566C147.674 3.87846 145.862 4.53508 144.4 5.30551C144.07 5.47185 143.769 5.3843 143.499 5.06037L142.938 4.40376C142.628 4.01854 142.688 3.72088 143.128 3.50201C147.234 1.55843 151.719 0.577881 156.595 0.577881C165.176 0.577881 169.471 4.07107 169.471 11.0662V33.111H169.451Z" fill="#00A3A1"/>
<path d="M162.793 41.752H151.378C151.088 41.752 150.848 41.5419 150.848 41.288V40.6576C150.848 40.4037 151.088 40.1936 151.378 40.1936H162.793C163.083 40.1936 163.323 40.4037 163.323 40.6576V41.288C163.323 41.5419 163.083 41.752 162.793 41.752Z" fill="#00A3A1"/>
<path d="M123.013 41.7518H121.812C121.331 41.7518 120.931 41.4016 120.931 40.9814V39.9308C120.931 39.5106 121.321 39.1604 121.812 39.1604H123.013C123.494 39.1604 123.894 39.5018 123.894 39.9308V40.9814C123.894 41.4016 123.504 41.7518 123.013 41.7518Z" fill="#00A3A1"/>
<path d="M118.448 41.7518H117.246C116.765 41.7518 116.365 41.4016 116.365 40.9814V39.9308C116.365 39.5106 116.755 39.1604 117.246 39.1604H118.448C118.928 39.1604 119.329 39.5018 119.329 39.9308V40.9814C119.329 41.4016 118.928 41.7518 118.448 41.7518Z" fill="#00A3A1"/>
<path d="M86.0072 41.7518H84.8057C84.3251 41.7518 83.9246 41.4016 83.9246 40.9814V39.9308C83.9246 39.5106 84.315 39.1604 84.8057 39.1604H86.0072C86.4878 39.1604 86.8883 39.5018 86.8883 39.9308V40.9814C86.8883 41.4016 86.4978 41.7518 86.0072 41.7518Z" fill="#00A3A1"/>
<path d="M81.4415 41.7518H80.24C79.7594 41.7518 79.3589 41.4016 79.3589 40.9814V39.9308C79.3589 39.5106 79.7494 39.1604 80.24 39.1604H81.4415C81.9221 39.1604 82.3226 39.5018 82.3226 39.9308V40.9814C82.3226 41.4016 81.9221 41.7518 81.4415 41.7518Z" fill="#00A3A1"/>
<path d="M49.6318 41.7518H48.4303C47.9497 41.7518 47.5492 41.4016 47.5492 40.9814V39.9308C47.5492 39.5106 47.9397 39.1604 48.4303 39.1604H49.6318C50.1124 39.1604 50.5129 39.5018 50.5129 39.9308V40.9814C50.5129 41.4016 50.1124 41.7518 49.6318 41.7518Z" fill="#00A3A1"/>
<path d="M45.0661 41.7518H43.8646C43.384 41.7518 42.9835 41.4016 42.9835 40.9814V39.9308C42.9835 39.5106 43.374 39.1604 43.8646 39.1604H45.0661C45.5467 39.1604 45.9472 39.5018 45.9472 39.9308V40.9814C45.9472 41.4016 45.5567 41.7518 45.0661 41.7518Z" fill="#00A3A1"/>
<path d="M47.3089 45.0001H46.1074C45.6268 45.0001 45.2263 44.6587 45.2263 44.2297V43.1791C45.2263 42.7589 45.6168 42.4087 46.1074 42.4087H47.3089C47.7895 42.4087 48.19 42.7501 48.19 43.1791V44.2297C48.19 44.6499 47.7995 45.0001 47.3089 45.0001Z" fill="#00A3A1"/>
</g>
<defs>
<clipPath id="clip0_28_78">
<rect width="345" height="45" fill="white"/>
</clipPath>
</defs>
</svg>
