<svg preserveAspectRatio="none" width="100%" height="100%" overflow="visible" style="display: block;" viewBox="0 0 40 40" fill="none" xmlns="http://www.w3.org/2000/svg">
<g id="Group">
<path id="Vector" d="M20 40C31.0457 40 40 31.0457 40 20C40 8.9543 31.0457 0 20 0C8.9543 0 0 8.9543 0 20C0 31.0457 8.9543 40 20 40Z" fill="var(--fill-0, #00A3A1)"/>
<path id="Vector_2" d="M24.19 20.84L24.61 17.61H21.41V15.55C21.41 14.62 21.67 13.98 23.01 13.98H24.71V11.1C24.41 11.06 23.4 10.97 22.22 10.97C19.76 10.97 18.08 12.47 18.08 15.23V17.61H15.31V20.84H18.08V29.04H21.42V20.84H24.2H24.19Z" fill="var(--fill-0, white)"/>
</g>
</svg>
