<svg preserveAspectRatio="none" width="100%" height="100%" overflow="visible" style="display: block;" viewBox="0 0 40 40" fill="none" xmlns="http://www.w3.org/2000/svg">
<g id="Group">
<path id="Vector" d="M20 40C31.0457 40 40 31.0457 40 20C40 8.9543 31.0457 0 20 0C8.9543 0 0 8.9543 0 20C0 31.0457 8.9543 40 20 40Z" fill="var(--fill-0, #00A3A1)"/>
<g id="Group_2">
<path id="Vector_2" d="M20 12.5C15.86 12.5 12.5 15.86 12.5 20C12.5 24.14 15.86 27.5 20 27.5C24.14 27.5 27.5 24.14 27.5 20C27.5 15.86 24.14 12.5 20 12.5ZM20 25.5C17.52 25.5 15.5 23.48 15.5 21C15.5 18.52 17.52 16.5 20 16.5C22.48 16.5 24.5 18.52 24.5 21C24.5 23.48 22.48 25.5 20 25.5Z" fill="var(--fill-0, white)"/>
<path id="Vector_3" d="M26.25 14.25C26.94 14.25 27.5 13.69 27.5 13C27.5 12.31 26.94 11.75 26.25 11.75C25.56 11.75 25 12.31 25 13C25 13.69 25.56 14.25 26.25 14.25Z" fill="var(--fill-0, white)"/>
<path id="Vector_4" d="M27 9H13C10.79 9 9 10.79 9 13V27C9 29.21 10.79 31 13 31H27C29.21 31 31 29.21 31 27V13C31 10.79 29.21 9 27 9ZM29 27C29 28.1 28.1 29 27 29H13C11.9 29 11 28.1 11 27V13C11 11.9 11.9 11 13 11H27C28.1 11 29 11.9 29 13V27Z" fill="var(--fill-0, white)"/>
</g>
</g>
</svg>
