<svg preserveAspectRatio="none" width="100%" height="100%" overflow="visible" style="display: block;" viewBox="0 0 40 40" fill="none" xmlns="http://www.w3.org/2000/svg">
<g id="Group">
<path id="Vector" d="M20 40C31.0457 40 40 31.0457 40 20C40 8.9543 31.0457 0 20 0C8.9543 0 0 8.9543 0 20C0 31.0457 8.9543 40 20 40Z" fill="var(--fill-0, #00A3A1)"/>
<g id="Group_2">
<path id="Vector_2" d="M20.01 9.2C14.01 9.2 9.13 14.04 9.13 20C9.13 22.36 9.9 24.55 11.2 26.33L9.84 30.34L14.02 29.01C15.74 30.14 17.8 30.79 20.01 30.79C26.01 30.79 30.89 25.95 30.89 19.99C30.89 14.03 26.01 9.19 20.01 9.19V9.2Z" stroke="var(--stroke-0, white)" stroke-linecap="round" stroke-linejoin="round"/>
<path id="Vector_3" d="M26.01 22.71C25.93 22.59 25.74 22.51 25.44 22.37C25.14 22.22 23.68 21.51 23.41 21.41C23.14 21.31 22.94 21.26 22.74 21.56C22.54 21.86 21.97 22.52 21.8 22.72C21.63 22.92 21.45 22.94 21.16 22.79C20.86 22.64 19.9 22.33 18.77 21.32C17.89 20.54 17.29 19.57 17.11 19.27C16.94 18.97 17.09 18.82 17.24 18.67C17.37 18.54 17.54 18.33 17.69 18.15C17.84 17.98 17.89 17.85 17.99 17.66C18.09 17.46 18.04 17.29 17.96 17.14C17.89 16.99 17.29 15.54 17.04 14.95C16.79 14.36 16.54 14.38 16.37 14.38C16.2 14.38 15.88 14.43 15.88 14.43C15.88 14.43 15.28 14.5 15.01 14.8C14.74 15.1 13.97 15.81 13.97 17.26C13.97 18.71 15.04 20.12 15.18 20.31C15.33 20.51 17.24 23.59 20.27 24.77C23.3 25.95 23.3 25.56 23.84 25.51C24.38 25.46 25.6 24.8 25.85 24.11C26.1 23.42 26.1 22.83 26.02 22.71H26.01Z" fill="var(--fill-0, white)" stroke="var(--stroke-0, white)" stroke-width="0.8" stroke-linecap="round" stroke-linejoin="round"/>
</g>
</g>
</svg>
